%TF.GenerationSoftware,KiCad,Pcbnew,9.0.0*%
%TF.CreationDate,2025-04-17T19:43:04-05:00*%
%TF.ProjectId,AbbyNormal,41626279-4e6f-4726-9d61-6c2e6b696361,rev?*%
%TF.SameCoordinates,Original*%
%TF.FileFunction,Soldermask,Bot*%
%TF.FilePolarity,Negative*%
%FSLAX46Y46*%
G04 Gerber Fmt 4.6, Leading zero omitted, Abs format (unit mm)*
G04 Created by KiCad (PCBNEW 9.0.0) date 2025-04-17 19:43:04*
%MOMM*%
%LPD*%
G01*
G04 APERTURE LIST*
G04 Aperture macros list*
%AMRoundRect*
0 Rectangle with rounded corners*
0 $1 Rounding radius*
0 $2 $3 $4 $5 $6 $7 $8 $9 X,Y pos of 4 corners*
0 Add a 4 corners polygon primitive as box body*
4,1,4,$2,$3,$4,$5,$6,$7,$8,$9,$2,$3,0*
0 Add four circle primitives for the rounded corners*
1,1,$1+$1,$2,$3*
1,1,$1+$1,$4,$5*
1,1,$1+$1,$6,$7*
1,1,$1+$1,$8,$9*
0 Add four rect primitives between the rounded corners*
20,1,$1+$1,$2,$3,$4,$5,0*
20,1,$1+$1,$4,$5,$6,$7,0*
20,1,$1+$1,$6,$7,$8,$9,0*
20,1,$1+$1,$8,$9,$2,$3,0*%
G04 Aperture macros list end*
%ADD10C,1.700000*%
%ADD11C,4.000000*%
%ADD12C,2.200000*%
%ADD13R,1.700000X1.700000*%
%ADD14O,1.700000X1.700000*%
%ADD15C,2.600000*%
%ADD16C,3.500000*%
%ADD17C,3.050000*%
%ADD18RoundRect,0.225000X0.375000X-0.225000X0.375000X0.225000X-0.375000X0.225000X-0.375000X-0.225000X0*%
G04 APERTURE END LIST*
D10*
%TO.C,SW30*%
X259080000Y-100330000D03*
D11*
X264160000Y-100330000D03*
D10*
X269240000Y-100330000D03*
D12*
X266700000Y-95250000D03*
X260350000Y-97790000D03*
%TD*%
D10*
%TO.C,SW39*%
X87630000Y-119380000D03*
D11*
X92710000Y-119380000D03*
D10*
X97790000Y-119380000D03*
D12*
X95250000Y-114300000D03*
X88900000Y-116840000D03*
%TD*%
D10*
%TO.C,SW48*%
X259080000Y-119380000D03*
D11*
X264160000Y-119380000D03*
D10*
X269240000Y-119380000D03*
D12*
X266700000Y-114300000D03*
X260350000Y-116840000D03*
%TD*%
D10*
%TO.C,SW40*%
X106680000Y-119380000D03*
D11*
X111760000Y-119380000D03*
D10*
X116840000Y-119380000D03*
D12*
X114300000Y-114300000D03*
X107950000Y-116840000D03*
%TD*%
D10*
%TO.C,SW57*%
X125730000Y-138430000D03*
D11*
X130810000Y-138430000D03*
D10*
X135890000Y-138430000D03*
D12*
X133350000Y-133350000D03*
X127000000Y-135890000D03*
%TD*%
D10*
%TO.C,SW74*%
X118586250Y-157480000D03*
D11*
X123666250Y-157480000D03*
D10*
X128746250Y-157480000D03*
D12*
X126206250Y-152400000D03*
X119856250Y-154940000D03*
%TD*%
D10*
%TO.C,SW26*%
X182880000Y-100330000D03*
D11*
X187960000Y-100330000D03*
D10*
X193040000Y-100330000D03*
D12*
X190500000Y-95250000D03*
X184150000Y-97790000D03*
%TD*%
D13*
%TO.C,J1*%
X352740000Y-77420000D03*
D14*
X352740000Y-79960000D03*
X352740000Y-82500000D03*
X352740000Y-85040000D03*
X352740000Y-87580000D03*
X352740000Y-90120000D03*
X352740000Y-92660000D03*
X352740000Y-95200000D03*
X352740000Y-97740000D03*
X352740000Y-100280000D03*
X352740000Y-102820000D03*
X352740000Y-105360000D03*
X352740000Y-107900000D03*
X352740000Y-110440000D03*
X352740000Y-112980000D03*
X352740000Y-115520000D03*
X352740000Y-118060000D03*
X352740000Y-120600000D03*
X352740000Y-123140000D03*
X352740000Y-125680000D03*
X352740000Y-128220000D03*
X352740000Y-130760000D03*
X352740000Y-133300000D03*
X352740000Y-135840000D03*
%TD*%
D15*
%TO.C,REF\u002A\u002A*%
X138000000Y-164600000D03*
D16*
X138000000Y-164600000D03*
%TD*%
D17*
%TO.C,SW37*%
X428760000Y-97955000D03*
X428760000Y-121755000D03*
D10*
X430680000Y-109855000D03*
D11*
X435760000Y-109855000D03*
D10*
X440840000Y-109855000D03*
D11*
X444000000Y-97955000D03*
X444000000Y-121755000D03*
D12*
X438300000Y-104775000D03*
X431950000Y-107315000D03*
%TD*%
D17*
%TO.C,SW75*%
X145103750Y-150480000D03*
D11*
X145103750Y-165720000D03*
D10*
X190023750Y-157480000D03*
D11*
X195103750Y-157480000D03*
D10*
X200183750Y-157480000D03*
D17*
X245103750Y-150480000D03*
D11*
X245103750Y-165720000D03*
D12*
X197643750Y-152400000D03*
X191293750Y-154940000D03*
%TD*%
D10*
%TO.C,SW16*%
X373530000Y-81280000D03*
D11*
X378610000Y-81280000D03*
D10*
X383690000Y-81280000D03*
D12*
X381150000Y-76200000D03*
X374800000Y-78740000D03*
%TD*%
D10*
%TO.C,SW79*%
X332898750Y-157480000D03*
D11*
X337978750Y-157480000D03*
D10*
X343058750Y-157480000D03*
D12*
X340518750Y-152400000D03*
X334168750Y-154940000D03*
%TD*%
D10*
%TO.C,SW7*%
X163830000Y-81280000D03*
D11*
X168910000Y-81280000D03*
D10*
X173990000Y-81280000D03*
D12*
X171450000Y-76200000D03*
X165100000Y-78740000D03*
%TD*%
D10*
%TO.C,SW2*%
X68580000Y-81280000D03*
D11*
X73660000Y-81280000D03*
D10*
X78740000Y-81280000D03*
D12*
X76200000Y-76200000D03*
X69850000Y-78740000D03*
%TD*%
D10*
%TO.C,SW36*%
X411630000Y-100330000D03*
D11*
X416710000Y-100330000D03*
D10*
X421790000Y-100330000D03*
D12*
X419250000Y-95250000D03*
X412900000Y-97790000D03*
%TD*%
D15*
%TO.C,REF\u002A\u002A*%
X353000000Y-164900000D03*
D16*
X353000000Y-164900000D03*
%TD*%
D10*
%TO.C,SW32*%
X297180000Y-100330000D03*
D11*
X302260000Y-100330000D03*
D10*
X307340000Y-100330000D03*
D12*
X304800000Y-95250000D03*
X298450000Y-97790000D03*
%TD*%
D10*
%TO.C,SW25*%
X163830000Y-100330000D03*
D11*
X168910000Y-100330000D03*
D10*
X173990000Y-100330000D03*
D12*
X171450000Y-95250000D03*
X165100000Y-97790000D03*
%TD*%
D10*
%TO.C,SW38*%
X61436250Y-119380000D03*
D11*
X66516250Y-119380000D03*
D10*
X71596250Y-119380000D03*
D12*
X69056250Y-114300000D03*
X62706250Y-116840000D03*
%TD*%
D10*
%TO.C,SW1*%
X49530000Y-81280000D03*
D11*
X54610000Y-81280000D03*
D10*
X59690000Y-81280000D03*
D12*
X57150000Y-76200000D03*
X50800000Y-78740000D03*
%TD*%
D10*
%TO.C,SW55*%
X87630000Y-138430000D03*
D11*
X92710000Y-138430000D03*
D10*
X97790000Y-138430000D03*
D12*
X95250000Y-133350000D03*
X88900000Y-135890000D03*
%TD*%
D10*
%TO.C,SW71*%
X49530000Y-157480000D03*
D11*
X54610000Y-157480000D03*
D10*
X59690000Y-157480000D03*
D12*
X57150000Y-152400000D03*
X50800000Y-154940000D03*
%TD*%
D10*
%TO.C,SW18*%
X411630000Y-81280000D03*
D11*
X416710000Y-81280000D03*
D10*
X421790000Y-81280000D03*
D12*
X419250000Y-76200000D03*
X412900000Y-78740000D03*
%TD*%
D17*
%TO.C,SW83*%
X168956750Y-150471050D03*
D11*
X168956750Y-165711050D03*
D10*
X175776750Y-157471050D03*
D11*
X180856750Y-157471050D03*
D10*
X185936750Y-157471050D03*
D17*
X192756750Y-150471050D03*
D11*
X192756750Y-165711050D03*
D12*
X183396750Y-152391050D03*
X177046750Y-154931050D03*
%TD*%
D10*
%TO.C,SW23*%
X125730000Y-100330000D03*
D11*
X130810000Y-100330000D03*
D10*
X135890000Y-100330000D03*
D12*
X133350000Y-95250000D03*
X127000000Y-97790000D03*
%TD*%
D10*
%TO.C,SW44*%
X182880000Y-119380000D03*
D11*
X187960000Y-119380000D03*
D10*
X193040000Y-119380000D03*
D12*
X190500000Y-114300000D03*
X184150000Y-116840000D03*
%TD*%
D15*
%TO.C,REF\u002A\u002A*%
X368000000Y-73200000D03*
D16*
X368000000Y-73200000D03*
%TD*%
D10*
%TO.C,SW81*%
X411630000Y-157480000D03*
D11*
X416710000Y-157480000D03*
D10*
X421790000Y-157480000D03*
D12*
X419250000Y-152400000D03*
X412900000Y-154940000D03*
%TD*%
D10*
%TO.C,SW58*%
X144780000Y-138430000D03*
D11*
X149860000Y-138430000D03*
D10*
X154940000Y-138430000D03*
D12*
X152400000Y-133350000D03*
X146050000Y-135890000D03*
%TD*%
D10*
%TO.C,SW5*%
X125730000Y-81280000D03*
D11*
X130810000Y-81280000D03*
D10*
X135890000Y-81280000D03*
D12*
X133350000Y-76200000D03*
X127000000Y-78740000D03*
%TD*%
D15*
%TO.C,REF\u002A\u002A*%
X42100000Y-73000000D03*
D16*
X42100000Y-73000000D03*
%TD*%
D10*
%TO.C,SW4*%
X106680000Y-81280000D03*
D11*
X111760000Y-81280000D03*
D10*
X116840000Y-81280000D03*
D12*
X114300000Y-76200000D03*
X107950000Y-78740000D03*
%TD*%
D15*
%TO.C,REF\u002A\u002A*%
X197500000Y-73100000D03*
D16*
X197500000Y-73100000D03*
%TD*%
D10*
%TO.C,SW46*%
X220980000Y-119380000D03*
D11*
X226060000Y-119380000D03*
D10*
X231140000Y-119380000D03*
D12*
X228600000Y-114300000D03*
X222250000Y-116840000D03*
%TD*%
D13*
%TO.C,J2*%
X367720000Y-77400000D03*
D14*
X367720000Y-79940000D03*
X367720000Y-82480000D03*
X367720000Y-85020000D03*
X367720000Y-87560000D03*
X367720000Y-90100000D03*
X367720000Y-92640000D03*
X367720000Y-95180000D03*
X367720000Y-97720000D03*
X367720000Y-100260000D03*
X367720000Y-102800000D03*
X367720000Y-105340000D03*
X367720000Y-107880000D03*
X367720000Y-110420000D03*
X367720000Y-112960000D03*
X367720000Y-115500000D03*
X367720000Y-118040000D03*
X367720000Y-120580000D03*
X367720000Y-123120000D03*
X367720000Y-125660000D03*
X367720000Y-128200000D03*
X367720000Y-130740000D03*
X367720000Y-133280000D03*
X367720000Y-135820000D03*
%TD*%
D10*
%TO.C,SW31*%
X278130000Y-100330000D03*
D11*
X283210000Y-100330000D03*
D10*
X288290000Y-100330000D03*
D12*
X285750000Y-95250000D03*
X279400000Y-97790000D03*
%TD*%
D10*
%TO.C,SW6*%
X144780000Y-81280000D03*
D11*
X149860000Y-81280000D03*
D10*
X154940000Y-81280000D03*
D12*
X152400000Y-76200000D03*
X146050000Y-78740000D03*
%TD*%
D10*
%TO.C,SW68*%
X392580000Y-138430000D03*
D11*
X397660000Y-138430000D03*
D10*
X402740000Y-138430000D03*
D12*
X400200000Y-133350000D03*
X393850000Y-135890000D03*
%TD*%
D17*
%TO.C,SW50*%
X302266250Y-112380000D03*
D11*
X302266250Y-127620000D03*
D10*
X309086250Y-119380000D03*
D11*
X314166250Y-119380000D03*
D10*
X319246250Y-119380000D03*
D17*
X326066250Y-112380000D03*
D11*
X326066250Y-127620000D03*
D12*
X316706250Y-114300000D03*
X310356250Y-116840000D03*
%TD*%
D15*
%TO.C,REF\u002A\u002A*%
X369100000Y-164900000D03*
D16*
X369100000Y-164900000D03*
%TD*%
D10*
%TO.C,SW3*%
X87630000Y-81280000D03*
D11*
X92710000Y-81280000D03*
D10*
X97790000Y-81280000D03*
D12*
X95250000Y-76200000D03*
X88900000Y-78740000D03*
%TD*%
D15*
%TO.C,REF\u002A\u002A*%
X443000000Y-164600000D03*
D16*
X443000000Y-164600000D03*
%TD*%
D17*
%TO.C,SW70*%
X428760000Y-136055000D03*
X428760000Y-159855000D03*
D10*
X430680000Y-147955000D03*
D11*
X435760000Y-147955000D03*
D10*
X440840000Y-147955000D03*
D11*
X444000000Y-136055000D03*
X444000000Y-159855000D03*
D12*
X438300000Y-142875000D03*
X431950000Y-145415000D03*
%TD*%
D10*
%TO.C,SW69*%
X411630000Y-138430000D03*
D11*
X416710000Y-138430000D03*
D10*
X421790000Y-138430000D03*
D12*
X419250000Y-133350000D03*
X412900000Y-135890000D03*
%TD*%
D17*
%TO.C,SW77*%
X278453750Y-150480000D03*
D11*
X278453750Y-165720000D03*
D10*
X285273750Y-157480000D03*
D11*
X290353750Y-157480000D03*
D10*
X295433750Y-157480000D03*
D17*
X302253750Y-150480000D03*
D11*
X302253750Y-165720000D03*
D12*
X292893750Y-152400000D03*
X286543750Y-154940000D03*
%TD*%
D17*
%TO.C,SW15*%
X318935000Y-74280000D03*
D11*
X318935000Y-89520000D03*
D10*
X325755000Y-81280000D03*
D11*
X330835000Y-81280000D03*
D10*
X335915000Y-81280000D03*
D17*
X342735000Y-74280000D03*
D11*
X342735000Y-89520000D03*
D12*
X333375000Y-76200000D03*
X327025000Y-78740000D03*
%TD*%
D10*
%TO.C,SW52*%
X392580000Y-119380000D03*
D11*
X397660000Y-119380000D03*
D10*
X402740000Y-119380000D03*
D12*
X400200000Y-114300000D03*
X393850000Y-116840000D03*
%TD*%
D17*
%TO.C,SW66*%
X307028750Y-131430000D03*
D11*
X307028750Y-146670000D03*
D10*
X313848750Y-138430000D03*
D11*
X318928750Y-138430000D03*
D10*
X324008750Y-138430000D03*
D17*
X330828750Y-131430000D03*
D11*
X330828750Y-146670000D03*
D12*
X321468750Y-133350000D03*
X315118750Y-135890000D03*
%TD*%
D15*
%TO.C,REF\u002A\u002A*%
X353100000Y-73200000D03*
D16*
X353100000Y-73200000D03*
%TD*%
D10*
%TO.C,SW41*%
X125730000Y-119380000D03*
D11*
X130810000Y-119380000D03*
D10*
X135890000Y-119380000D03*
D12*
X133350000Y-114300000D03*
X127000000Y-116840000D03*
%TD*%
D10*
%TO.C,SW53*%
X411630000Y-119380000D03*
D11*
X416710000Y-119380000D03*
D10*
X421790000Y-119380000D03*
D12*
X419250000Y-114300000D03*
X412900000Y-116840000D03*
%TD*%
D10*
%TO.C,SW60*%
X182880000Y-138430000D03*
D11*
X187960000Y-138430000D03*
D10*
X193040000Y-138430000D03*
D12*
X190500000Y-133350000D03*
X184150000Y-135890000D03*
%TD*%
D10*
%TO.C,SW22*%
X106680000Y-100330000D03*
D11*
X111760000Y-100330000D03*
D10*
X116840000Y-100330000D03*
D12*
X114300000Y-95250000D03*
X107950000Y-97790000D03*
%TD*%
D10*
%TO.C,SW67*%
X373530000Y-138430000D03*
D11*
X378610000Y-138430000D03*
D10*
X383690000Y-138430000D03*
D12*
X381150000Y-133350000D03*
X374800000Y-135890000D03*
%TD*%
D10*
%TO.C,SW10*%
X220980000Y-81280000D03*
D11*
X226060000Y-81280000D03*
D10*
X231140000Y-81280000D03*
D12*
X228600000Y-76200000D03*
X222250000Y-78740000D03*
%TD*%
D15*
%TO.C,REF\u002A\u002A*%
X252400000Y-164700000D03*
D16*
X252400000Y-164700000D03*
%TD*%
D10*
%TO.C,SW33*%
X320992500Y-100330000D03*
D11*
X326072500Y-100330000D03*
D10*
X331152500Y-100330000D03*
D12*
X328612500Y-95250000D03*
X322262500Y-97790000D03*
%TD*%
D10*
%TO.C,SW20*%
X63817500Y-100330000D03*
D11*
X68897500Y-100330000D03*
D10*
X73977500Y-100330000D03*
D12*
X71437500Y-95250000D03*
X65087500Y-97790000D03*
%TD*%
D10*
%TO.C,SW29*%
X240030000Y-100330000D03*
D11*
X245110000Y-100330000D03*
D10*
X250190000Y-100330000D03*
D12*
X247650000Y-95250000D03*
X241300000Y-97790000D03*
%TD*%
D10*
%TO.C,SW43*%
X163830000Y-119380000D03*
D11*
X168910000Y-119380000D03*
D10*
X173990000Y-119380000D03*
D12*
X171450000Y-114300000D03*
X165100000Y-116840000D03*
%TD*%
D10*
%TO.C,SW78*%
X309086250Y-157480000D03*
D11*
X314166250Y-157480000D03*
D10*
X319246250Y-157480000D03*
D12*
X316706250Y-152400000D03*
X310356250Y-154940000D03*
%TD*%
D10*
%TO.C,SW59*%
X163830000Y-138430000D03*
D11*
X168910000Y-138430000D03*
D10*
X173990000Y-138430000D03*
D12*
X171450000Y-133350000D03*
X165100000Y-135890000D03*
%TD*%
D10*
%TO.C,SW34*%
X373530000Y-100330000D03*
D11*
X378610000Y-100330000D03*
D10*
X383690000Y-100330000D03*
D12*
X381150000Y-95250000D03*
X374800000Y-97790000D03*
%TD*%
D10*
%TO.C,SW13*%
X278130000Y-81280000D03*
D11*
X283210000Y-81280000D03*
D10*
X288290000Y-81280000D03*
D12*
X285750000Y-76200000D03*
X279400000Y-78740000D03*
%TD*%
D15*
%TO.C,REF\u002A\u002A*%
X41900000Y-165100000D03*
D16*
X41900000Y-165100000D03*
%TD*%
D15*
%TO.C,REF\u002A\u002A*%
X443800000Y-72400000D03*
D16*
X443800000Y-72400000D03*
%TD*%
D10*
%TO.C,SW17*%
X392580000Y-81280000D03*
D11*
X397660000Y-81280000D03*
D10*
X402740000Y-81280000D03*
D12*
X400200000Y-76200000D03*
X393850000Y-78740000D03*
%TD*%
D10*
%TO.C,SW72*%
X70961250Y-157480000D03*
D11*
X76041250Y-157480000D03*
D10*
X81121250Y-157480000D03*
D12*
X78581250Y-152400000D03*
X72231250Y-154940000D03*
%TD*%
D10*
%TO.C,SW21*%
X87630000Y-100330000D03*
D11*
X92710000Y-100330000D03*
D10*
X97790000Y-100330000D03*
D12*
X95250000Y-95250000D03*
X88900000Y-97790000D03*
%TD*%
D10*
%TO.C,SW76*%
X261461250Y-157480000D03*
D11*
X266541250Y-157480000D03*
D10*
X271621250Y-157480000D03*
D12*
X269081250Y-152400000D03*
X262731250Y-154940000D03*
%TD*%
D10*
%TO.C,SW9*%
X201930000Y-81280000D03*
D11*
X207010000Y-81280000D03*
D10*
X212090000Y-81280000D03*
D12*
X209550000Y-76200000D03*
X203200000Y-78740000D03*
%TD*%
D17*
%TO.C,SW84*%
X216541250Y-150480000D03*
D11*
X216541250Y-165720000D03*
D10*
X223361250Y-157480000D03*
D11*
X228441250Y-157480000D03*
D10*
X233521250Y-157480000D03*
D17*
X240341250Y-150480000D03*
D11*
X240341250Y-165720000D03*
D12*
X230981250Y-152400000D03*
X224631250Y-154940000D03*
%TD*%
D10*
%TO.C,SW63*%
X240030000Y-138430000D03*
D11*
X245110000Y-138430000D03*
D10*
X250190000Y-138430000D03*
D12*
X247650000Y-133350000D03*
X241300000Y-135890000D03*
%TD*%
D10*
%TO.C,SW19*%
X430680000Y-81280000D03*
D11*
X435760000Y-81280000D03*
D10*
X440840000Y-81280000D03*
D12*
X438300000Y-76200000D03*
X431950000Y-78740000D03*
%TD*%
D10*
%TO.C,SW82*%
X142404750Y-157500000D03*
D11*
X147484750Y-157500000D03*
D10*
X152564750Y-157500000D03*
D12*
X150024750Y-152420000D03*
X143674750Y-154960000D03*
%TD*%
D10*
%TO.C,SW45*%
X201930000Y-119380000D03*
D11*
X207010000Y-119380000D03*
D10*
X212090000Y-119380000D03*
D12*
X209550000Y-114300000D03*
X203200000Y-116840000D03*
%TD*%
D10*
%TO.C,SW56*%
X106680000Y-138430000D03*
D11*
X111760000Y-138430000D03*
D10*
X116840000Y-138430000D03*
D12*
X114300000Y-133350000D03*
X107950000Y-135890000D03*
%TD*%
D10*
%TO.C,SW51*%
X373530000Y-119380000D03*
D11*
X378610000Y-119380000D03*
D10*
X383690000Y-119380000D03*
D12*
X381150000Y-114300000D03*
X374800000Y-116840000D03*
%TD*%
D10*
%TO.C,SW35*%
X392580000Y-100330000D03*
D11*
X397660000Y-100330000D03*
D10*
X402740000Y-100330000D03*
D12*
X400200000Y-95250000D03*
X393850000Y-97790000D03*
%TD*%
D10*
%TO.C,SW64*%
X259080000Y-138430000D03*
D11*
X264160000Y-138430000D03*
D10*
X269240000Y-138430000D03*
D12*
X266700000Y-133350000D03*
X260350000Y-135890000D03*
%TD*%
D17*
%TO.C,SW80*%
X376235000Y-150480000D03*
D11*
X376235000Y-165720000D03*
D10*
X383055000Y-157480000D03*
D11*
X388135000Y-157480000D03*
D10*
X393215000Y-157480000D03*
D17*
X400035000Y-150480000D03*
D11*
X400035000Y-165720000D03*
D12*
X390675000Y-152400000D03*
X384325000Y-154940000D03*
%TD*%
D10*
%TO.C,SW27*%
X201930000Y-100330000D03*
D11*
X207010000Y-100330000D03*
D10*
X212090000Y-100330000D03*
D12*
X209550000Y-95250000D03*
X203200000Y-97790000D03*
%TD*%
D10*
%TO.C,SW47*%
X240030000Y-119380000D03*
D11*
X245110000Y-119380000D03*
D10*
X250190000Y-119380000D03*
D12*
X247650000Y-114300000D03*
X241300000Y-116840000D03*
%TD*%
D17*
%TO.C,SW54*%
X49853750Y-131430000D03*
D11*
X49853750Y-146670000D03*
D10*
X56673750Y-138430000D03*
D11*
X61753750Y-138430000D03*
D10*
X66833750Y-138430000D03*
D17*
X73653750Y-131430000D03*
D11*
X73653750Y-146670000D03*
D12*
X64293750Y-133350000D03*
X57943750Y-135890000D03*
%TD*%
D10*
%TO.C,SW73*%
X94773750Y-157480000D03*
D11*
X99853750Y-157480000D03*
D10*
X104933750Y-157480000D03*
D12*
X102393750Y-152400000D03*
X96043750Y-154940000D03*
%TD*%
D10*
%TO.C,SW65*%
X278130000Y-138430000D03*
D11*
X283210000Y-138430000D03*
D10*
X288290000Y-138430000D03*
D12*
X285750000Y-133350000D03*
X279400000Y-135890000D03*
%TD*%
D10*
%TO.C,SW11*%
X240030000Y-81280000D03*
D11*
X245110000Y-81280000D03*
D10*
X250190000Y-81280000D03*
D12*
X247650000Y-76200000D03*
X241300000Y-78740000D03*
%TD*%
D10*
%TO.C,SW62*%
X220980000Y-138430000D03*
D11*
X226060000Y-138430000D03*
D10*
X231140000Y-138430000D03*
D12*
X228600000Y-133350000D03*
X222250000Y-135890000D03*
%TD*%
D10*
%TO.C,SW12*%
X259080000Y-81280000D03*
D11*
X264160000Y-81280000D03*
D10*
X269240000Y-81280000D03*
D12*
X266700000Y-76200000D03*
X260350000Y-78740000D03*
%TD*%
D10*
%TO.C,SW14*%
X297180000Y-81280000D03*
D11*
X302260000Y-81280000D03*
D10*
X307340000Y-81280000D03*
D12*
X304800000Y-76200000D03*
X298450000Y-78740000D03*
%TD*%
D10*
%TO.C,SW8*%
X182880000Y-81280000D03*
D11*
X187960000Y-81280000D03*
D10*
X193040000Y-81280000D03*
D12*
X190500000Y-76200000D03*
X184150000Y-78740000D03*
%TD*%
D10*
%TO.C,SW24*%
X144780000Y-100330000D03*
D11*
X149860000Y-100330000D03*
D10*
X154940000Y-100330000D03*
D12*
X152400000Y-95250000D03*
X146050000Y-97790000D03*
%TD*%
D10*
%TO.C,SW28*%
X220980000Y-100330000D03*
D11*
X226060000Y-100330000D03*
D10*
X231140000Y-100330000D03*
D12*
X228600000Y-95250000D03*
X222250000Y-97790000D03*
%TD*%
D10*
%TO.C,SW61*%
X201930000Y-138430000D03*
D11*
X207010000Y-138430000D03*
D10*
X212090000Y-138430000D03*
D12*
X209550000Y-133350000D03*
X203200000Y-135890000D03*
%TD*%
D10*
%TO.C,SW42*%
X144780000Y-119380000D03*
D11*
X149860000Y-119380000D03*
D10*
X154940000Y-119380000D03*
D12*
X152400000Y-114300000D03*
X146050000Y-116840000D03*
%TD*%
D10*
%TO.C,SW49*%
X278130000Y-119380000D03*
D11*
X283210000Y-119380000D03*
D10*
X288290000Y-119380000D03*
D12*
X285750000Y-114300000D03*
X279400000Y-116840000D03*
%TD*%
D18*
%TO.C,D79*%
X346598750Y-157080000D03*
X346598750Y-153780000D03*
%TD*%
%TO.C,D32*%
X310880000Y-99930000D03*
X310880000Y-96630000D03*
%TD*%
%TO.C,D34*%
X387230000Y-99930000D03*
X387230000Y-96630000D03*
%TD*%
%TO.C,D20*%
X77517500Y-99930000D03*
X77517500Y-96630000D03*
%TD*%
%TO.C,D51*%
X387230000Y-118980000D03*
X387230000Y-115680000D03*
%TD*%
%TO.C,D21*%
X101330000Y-99930000D03*
X101330000Y-96630000D03*
%TD*%
%TO.C,D66*%
X327548750Y-138030000D03*
X327548750Y-134730000D03*
%TD*%
%TO.C,D15*%
X339455000Y-80880000D03*
X339455000Y-77580000D03*
%TD*%
%TO.C,D29*%
X253730000Y-99930000D03*
X253730000Y-96630000D03*
%TD*%
%TO.C,D73*%
X108473750Y-157080000D03*
X108473750Y-153780000D03*
%TD*%
%TO.C,D22*%
X120380000Y-99930000D03*
X120380000Y-96630000D03*
%TD*%
%TO.C,D12*%
X272780000Y-80880000D03*
X272780000Y-77580000D03*
%TD*%
%TO.C,D19*%
X444380000Y-80880000D03*
X444380000Y-77580000D03*
%TD*%
%TO.C,D4*%
X120380000Y-80880000D03*
X120380000Y-77580000D03*
%TD*%
%TO.C,D47*%
X253730000Y-118980000D03*
X253730000Y-115680000D03*
%TD*%
%TO.C,D11*%
X253730000Y-80880000D03*
X253730000Y-77580000D03*
%TD*%
%TO.C,D1*%
X63230000Y-80880000D03*
X63230000Y-77580000D03*
%TD*%
%TO.C,D13*%
X291830000Y-80880000D03*
X291830000Y-77580000D03*
%TD*%
%TO.C,D70*%
X444380000Y-147555000D03*
X444380000Y-144255000D03*
%TD*%
%TO.C,D37*%
X444380000Y-109455000D03*
X444380000Y-106155000D03*
%TD*%
%TO.C,D68*%
X406280000Y-138030000D03*
X406280000Y-134730000D03*
%TD*%
%TO.C,D57*%
X139430000Y-138030000D03*
X139430000Y-134730000D03*
%TD*%
%TO.C,D35*%
X406280000Y-99930000D03*
X406280000Y-96630000D03*
%TD*%
%TO.C,D14*%
X310880000Y-80880000D03*
X310880000Y-77580000D03*
%TD*%
%TO.C,D61*%
X215630000Y-138030000D03*
X215630000Y-134730000D03*
%TD*%
%TO.C,D28*%
X234680000Y-99930000D03*
X234680000Y-96630000D03*
%TD*%
%TO.C,D9*%
X215630000Y-80880000D03*
X215630000Y-77580000D03*
%TD*%
%TO.C,D54*%
X70373750Y-138030000D03*
X70373750Y-134730000D03*
%TD*%
%TO.C,D81*%
X425330000Y-157080000D03*
X425330000Y-153780000D03*
%TD*%
%TO.C,D8*%
X196580000Y-80880000D03*
X196580000Y-77580000D03*
%TD*%
%TO.C,D42*%
X158480000Y-118980000D03*
X158480000Y-115680000D03*
%TD*%
%TO.C,D78*%
X322786250Y-157080000D03*
X322786250Y-153780000D03*
%TD*%
%TO.C,D82*%
X156500000Y-157000000D03*
X156500000Y-153700000D03*
%TD*%
%TO.C,D46*%
X234680000Y-118980000D03*
X234680000Y-115680000D03*
%TD*%
%TO.C,D49*%
X291830000Y-118980000D03*
X291830000Y-115680000D03*
%TD*%
%TO.C,D53*%
X425330000Y-118980000D03*
X425330000Y-115680000D03*
%TD*%
%TO.C,D63*%
X253730000Y-138030000D03*
X253730000Y-134730000D03*
%TD*%
%TO.C,D75*%
X203723750Y-157080000D03*
X203723750Y-153780000D03*
%TD*%
%TO.C,D60*%
X196580000Y-138030000D03*
X196580000Y-134730000D03*
%TD*%
%TO.C,D67*%
X387230000Y-138030000D03*
X387230000Y-134730000D03*
%TD*%
%TO.C,D3*%
X101330000Y-80880000D03*
X101330000Y-77580000D03*
%TD*%
%TO.C,D41*%
X139430000Y-118980000D03*
X139430000Y-115680000D03*
%TD*%
%TO.C,D10*%
X234680000Y-80880000D03*
X234680000Y-77580000D03*
%TD*%
%TO.C,D6*%
X158480000Y-80880000D03*
X158480000Y-77580000D03*
%TD*%
%TO.C,D83*%
X163500000Y-157150000D03*
X163500000Y-153850000D03*
%TD*%
%TO.C,D23*%
X139430000Y-99930000D03*
X139430000Y-96630000D03*
%TD*%
%TO.C,D27*%
X215630000Y-99930000D03*
X215630000Y-96630000D03*
%TD*%
%TO.C,D69*%
X425330000Y-138030000D03*
X425330000Y-134730000D03*
%TD*%
%TO.C,D62*%
X234680000Y-138030000D03*
X234680000Y-134730000D03*
%TD*%
%TO.C,D25*%
X177530000Y-99930000D03*
X177530000Y-96630000D03*
%TD*%
%TO.C,D72*%
X84661250Y-157080000D03*
X84661250Y-153780000D03*
%TD*%
%TO.C,D74*%
X132286250Y-157080000D03*
X132286250Y-153780000D03*
%TD*%
%TO.C,D64*%
X272780000Y-138030000D03*
X272780000Y-134730000D03*
%TD*%
%TO.C,D31*%
X291830000Y-99930000D03*
X291830000Y-96630000D03*
%TD*%
%TO.C,D17*%
X406280000Y-80880000D03*
X406280000Y-77580000D03*
%TD*%
%TO.C,D18*%
X425330000Y-80880000D03*
X425330000Y-77580000D03*
%TD*%
%TO.C,D52*%
X406280000Y-118980000D03*
X406280000Y-115680000D03*
%TD*%
%TO.C,D65*%
X291830000Y-138030000D03*
X291830000Y-134730000D03*
%TD*%
%TO.C,D24*%
X158480000Y-99930000D03*
X158480000Y-96630000D03*
%TD*%
%TO.C,D84*%
X237061250Y-157080000D03*
X237061250Y-153780000D03*
%TD*%
%TO.C,D36*%
X425330000Y-99930000D03*
X425330000Y-96630000D03*
%TD*%
%TO.C,D30*%
X272780000Y-99930000D03*
X272780000Y-96630000D03*
%TD*%
%TO.C,D80*%
X396755000Y-157080000D03*
X396755000Y-153780000D03*
%TD*%
%TO.C,D2*%
X82280000Y-80880000D03*
X82280000Y-77580000D03*
%TD*%
%TO.C,D59*%
X177530000Y-138030000D03*
X177530000Y-134730000D03*
%TD*%
%TO.C,D40*%
X120380000Y-118980000D03*
X120380000Y-115680000D03*
%TD*%
%TO.C,D71*%
X63230000Y-157080000D03*
X63230000Y-153780000D03*
%TD*%
%TO.C,D5*%
X139430000Y-80880000D03*
X139430000Y-77580000D03*
%TD*%
%TO.C,D38*%
X75136250Y-118980000D03*
X75136250Y-115680000D03*
%TD*%
%TO.C,D45*%
X215630000Y-118980000D03*
X215630000Y-115680000D03*
%TD*%
%TO.C,D39*%
X101330000Y-118980000D03*
X101330000Y-115680000D03*
%TD*%
%TO.C,D44*%
X196580000Y-118980000D03*
X196580000Y-115680000D03*
%TD*%
%TO.C,D77*%
X298973750Y-157080000D03*
X298973750Y-153780000D03*
%TD*%
%TO.C,D50*%
X322786250Y-118980000D03*
X322786250Y-115680000D03*
%TD*%
%TO.C,D26*%
X196580000Y-99930000D03*
X196580000Y-96630000D03*
%TD*%
%TO.C,D7*%
X177530000Y-80880000D03*
X177530000Y-77580000D03*
%TD*%
%TO.C,D58*%
X158480000Y-138030000D03*
X158480000Y-134730000D03*
%TD*%
%TO.C,D76*%
X275161250Y-157080000D03*
X275161250Y-153780000D03*
%TD*%
%TO.C,D48*%
X272780000Y-118980000D03*
X272780000Y-115680000D03*
%TD*%
%TO.C,D16*%
X387230000Y-80880000D03*
X387230000Y-77580000D03*
%TD*%
%TO.C,D33*%
X334692500Y-99930000D03*
X334692500Y-96630000D03*
%TD*%
%TO.C,D43*%
X177530000Y-118980000D03*
X177530000Y-115680000D03*
%TD*%
%TO.C,D56*%
X120380000Y-138030000D03*
X120380000Y-134730000D03*
%TD*%
%TO.C,D55*%
X101330000Y-138030000D03*
X101330000Y-134730000D03*
%TD*%
M02*
