M48
; DRILL file {KiCad 9.0.0} date 2025-04-17T19:42:09-0500
; FORMAT={-:-/ absolute / metric / decimal}
; #@! TF.CreationDate,2025-04-17T19:42:09-05:00
; #@! TF.GenerationSoftware,Kicad,Pcbnew,9.0.0
; #@! TF.FileFunction,NonPlated,1,2,NPTH
FMAT,2
METRIC
; #@! TA.AperFunction,NonPlated,NPTH,ComponentDrill
T1C1.700
; #@! TA.AperFunction,NonPlated,NPTH,ComponentDrill
T2C3.050
; #@! TA.AperFunction,NonPlated,NPTH,ComponentDrill
T3C4.000
%
G90
G05
T1
X49.53Y-81.28
X49.53Y-157.48
X56.674Y-138.43
X59.69Y-81.28
X59.69Y-157.48
X61.436Y-119.38
X63.817Y-100.33
X66.834Y-138.43
X68.58Y-81.28
X70.961Y-157.48
X71.596Y-119.38
X73.977Y-100.33
X78.74Y-81.28
X81.121Y-157.48
X87.63Y-81.28
X87.63Y-100.33
X87.63Y-119.38
X87.63Y-138.43
X94.774Y-157.48
X97.79Y-81.28
X97.79Y-100.33
X97.79Y-119.38
X97.79Y-138.43
X104.934Y-157.48
X106.68Y-81.28
X106.68Y-100.33
X106.68Y-119.38
X106.68Y-138.43
X116.84Y-81.28
X116.84Y-100.33
X116.84Y-119.38
X116.84Y-138.43
X118.586Y-157.48
X125.73Y-81.28
X125.73Y-100.33
X125.73Y-119.38
X125.73Y-138.43
X128.746Y-157.48
X135.89Y-81.28
X135.89Y-100.33
X135.89Y-119.38
X135.89Y-138.43
X142.405Y-157.5
X144.78Y-81.28
X144.78Y-100.33
X144.78Y-119.38
X144.78Y-138.43
X152.565Y-157.5
X154.94Y-81.28
X154.94Y-100.33
X154.94Y-119.38
X154.94Y-138.43
X163.83Y-81.28
X163.83Y-100.33
X163.83Y-119.38
X163.83Y-138.43
X173.99Y-81.28
X173.99Y-100.33
X173.99Y-119.38
X173.99Y-138.43
X175.777Y-157.471
X182.88Y-81.28
X182.88Y-100.33
X182.88Y-119.38
X182.88Y-138.43
X185.937Y-157.471
X190.024Y-157.48
X193.04Y-81.28
X193.04Y-100.33
X193.04Y-119.38
X193.04Y-138.43
X200.184Y-157.48
X201.93Y-81.28
X201.93Y-100.33
X201.93Y-119.38
X201.93Y-138.43
X212.09Y-81.28
X212.09Y-100.33
X212.09Y-119.38
X212.09Y-138.43
X220.98Y-81.28
X220.98Y-100.33
X220.98Y-119.38
X220.98Y-138.43
X223.361Y-157.48
X231.14Y-81.28
X231.14Y-100.33
X231.14Y-119.38
X231.14Y-138.43
X233.521Y-157.48
X240.03Y-81.28
X240.03Y-100.33
X240.03Y-119.38
X240.03Y-138.43
X250.19Y-81.28
X250.19Y-100.33
X250.19Y-119.38
X250.19Y-138.43
X259.08Y-81.28
X259.08Y-100.33
X259.08Y-119.38
X259.08Y-138.43
X261.461Y-157.48
X269.24Y-81.28
X269.24Y-100.33
X269.24Y-119.38
X269.24Y-138.43
X271.621Y-157.48
X278.13Y-81.28
X278.13Y-100.33
X278.13Y-119.38
X278.13Y-138.43
X285.274Y-157.48
X288.29Y-81.28
X288.29Y-100.33
X288.29Y-119.38
X288.29Y-138.43
X295.434Y-157.48
X297.18Y-81.28
X297.18Y-100.33
X307.34Y-81.28
X307.34Y-100.33
X309.086Y-119.38
X309.086Y-157.48
X313.849Y-138.43
X319.246Y-119.38
X319.246Y-157.48
X320.993Y-100.33
X324.009Y-138.43
X325.755Y-81.28
X331.152Y-100.33
X332.899Y-157.48
X335.915Y-81.28
X343.059Y-157.48
X373.53Y-81.28
X373.53Y-100.33
X373.53Y-119.38
X373.53Y-138.43
X383.055Y-157.48
X383.69Y-81.28
X383.69Y-100.33
X383.69Y-119.38
X383.69Y-138.43
X392.58Y-81.28
X392.58Y-100.33
X392.58Y-119.38
X392.58Y-138.43
X393.215Y-157.48
X402.74Y-81.28
X402.74Y-100.33
X402.74Y-119.38
X402.74Y-138.43
X411.63Y-81.28
X411.63Y-100.33
X411.63Y-119.38
X411.63Y-138.43
X411.63Y-157.48
X421.79Y-81.28
X421.79Y-100.33
X421.79Y-119.38
X421.79Y-138.43
X421.79Y-157.48
X430.68Y-81.28
X430.68Y-109.855
X430.68Y-147.955
X440.84Y-81.28
X440.84Y-109.855
X440.84Y-147.955
T2
X49.854Y-131.43
X73.654Y-131.43
X145.104Y-150.48
X168.957Y-150.471
X192.757Y-150.471
X216.541Y-150.48
X240.341Y-150.48
X245.104Y-150.48
X278.454Y-150.48
X302.254Y-150.48
X302.266Y-112.38
X307.029Y-131.43
X318.935Y-74.28
X326.066Y-112.38
X330.829Y-131.43
X342.735Y-74.28
X376.235Y-150.48
X400.035Y-150.48
X428.76Y-97.955
X428.76Y-121.755
X428.76Y-136.055
X428.76Y-159.855
T3
X49.854Y-146.67
X54.61Y-81.28
X54.61Y-157.48
X61.754Y-138.43
X66.516Y-119.38
X68.897Y-100.33
X73.654Y-146.67
X73.66Y-81.28
X76.041Y-157.48
X92.71Y-81.28
X92.71Y-100.33
X92.71Y-119.38
X92.71Y-138.43
X99.854Y-157.48
X111.76Y-81.28
X111.76Y-100.33
X111.76Y-119.38
X111.76Y-138.43
X123.666Y-157.48
X130.81Y-81.28
X130.81Y-100.33
X130.81Y-119.38
X130.81Y-138.43
X145.104Y-165.72
X147.485Y-157.5
X149.86Y-81.28
X149.86Y-100.33
X149.86Y-119.38
X149.86Y-138.43
X168.91Y-81.28
X168.91Y-100.33
X168.91Y-119.38
X168.91Y-138.43
X168.957Y-165.711
X180.857Y-157.471
X187.96Y-81.28
X187.96Y-100.33
X187.96Y-119.38
X187.96Y-138.43
X192.757Y-165.711
X195.104Y-157.48
X207.01Y-81.28
X207.01Y-100.33
X207.01Y-119.38
X207.01Y-138.43
X216.541Y-165.72
X226.06Y-81.28
X226.06Y-100.33
X226.06Y-119.38
X226.06Y-138.43
X228.441Y-157.48
X240.341Y-165.72
X245.104Y-165.72
X245.11Y-81.28
X245.11Y-100.33
X245.11Y-119.38
X245.11Y-138.43
X264.16Y-81.28
X264.16Y-100.33
X264.16Y-119.38
X264.16Y-138.43
X266.541Y-157.48
X278.454Y-165.72
X283.21Y-81.28
X283.21Y-100.33
X283.21Y-119.38
X283.21Y-138.43
X290.354Y-157.48
X302.254Y-165.72
X302.26Y-81.28
X302.26Y-100.33
X302.266Y-127.62
X307.029Y-146.67
X314.166Y-119.38
X314.166Y-157.48
X318.929Y-138.43
X318.935Y-89.52
X326.066Y-127.62
X326.072Y-100.33
X330.829Y-146.67
X330.835Y-81.28
X337.979Y-157.48
X342.735Y-89.52
X376.235Y-165.72
X378.61Y-81.28
X378.61Y-100.33
X378.61Y-119.38
X378.61Y-138.43
X388.135Y-157.48
X397.66Y-81.28
X397.66Y-100.33
X397.66Y-119.38
X397.66Y-138.43
X400.035Y-165.72
X416.71Y-81.28
X416.71Y-100.33
X416.71Y-119.38
X416.71Y-138.43
X416.71Y-157.48
X435.76Y-81.28
X435.76Y-109.855
X435.76Y-147.955
X444.0Y-97.955
X444.0Y-121.755
X444.0Y-136.055
X444.0Y-159.855
M30
