M48
; DRILL file {KiCad 9.0.0} date 2025-04-17T19:42:09-0500
; FORMAT={-:-/ absolute / metric / decimal}
; #@! TF.CreationDate,2025-04-17T19:42:09-05:00
; #@! TF.GenerationSoftware,Kicad,Pcbnew,9.0.0
; #@! TF.FileFunction,Plated,1,2,PTH
FMAT,2
METRIC
; #@! TA.AperFunction,Plated,PTH,ViaDrill
T1C0.300
; #@! TA.AperFunction,Plated,PTH,ComponentDrill
T2C1.000
; #@! TA.AperFunction,Plated,PTH,ComponentDrill
T3C1.500
; #@! TA.AperFunction,Plated,PTH,ComponentDrill
T4C2.200
%
G90
G05
T1
X66.04Y-144.78
X82.55Y-144.78
X96.52Y-129.54
X115.57Y-128.27
X134.62Y-127.0
X153.67Y-125.73
X172.72Y-124.46
X192.39Y-112.1
X211.4Y-110.31
X230.67Y-109.06
X249.08Y-106.63
T2
X352.74Y-77.42
X352.74Y-79.96
X352.74Y-82.5
X352.74Y-85.04
X352.74Y-87.58
X352.74Y-90.12
X352.74Y-92.66
X352.74Y-95.2
X352.74Y-97.74
X352.74Y-100.28
X352.74Y-102.82
X352.74Y-105.36
X352.74Y-107.9
X352.74Y-110.44
X352.74Y-112.98
X352.74Y-115.52
X352.74Y-118.06
X352.74Y-120.6
X352.74Y-123.14
X352.74Y-125.68
X352.74Y-128.22
X352.74Y-130.76
X352.74Y-133.3
X352.74Y-135.84
X367.72Y-77.4
X367.72Y-79.94
X367.72Y-82.48
X367.72Y-85.02
X367.72Y-87.56
X367.72Y-90.1
X367.72Y-92.64
X367.72Y-95.18
X367.72Y-97.72
X367.72Y-100.26
X367.72Y-102.8
X367.72Y-105.34
X367.72Y-107.88
X367.72Y-110.42
X367.72Y-112.96
X367.72Y-115.5
X367.72Y-118.04
X367.72Y-120.58
X367.72Y-123.12
X367.72Y-125.66
X367.72Y-128.2
X367.72Y-130.74
X367.72Y-133.28
X367.72Y-135.82
T3
X50.8Y-78.74
X50.8Y-154.94
X57.15Y-76.2
X57.15Y-152.4
X57.944Y-135.89
X62.706Y-116.84
X64.294Y-133.35
X65.087Y-97.79
X69.056Y-114.3
X69.85Y-78.74
X71.438Y-95.25
X72.231Y-154.94
X76.2Y-76.2
X78.581Y-152.4
X88.9Y-78.74
X88.9Y-97.79
X88.9Y-116.84
X88.9Y-135.89
X95.25Y-76.2
X95.25Y-95.25
X95.25Y-114.3
X95.25Y-133.35
X96.044Y-154.94
X102.394Y-152.4
X107.95Y-78.74
X107.95Y-97.79
X107.95Y-116.84
X107.95Y-135.89
X114.3Y-76.2
X114.3Y-95.25
X114.3Y-114.3
X114.3Y-133.35
X119.856Y-154.94
X126.206Y-152.4
X127.0Y-78.74
X127.0Y-97.79
X127.0Y-116.84
X127.0Y-135.89
X133.35Y-76.2
X133.35Y-95.25
X133.35Y-114.3
X133.35Y-133.35
X143.675Y-154.96
X146.05Y-78.74
X146.05Y-97.79
X146.05Y-116.84
X146.05Y-135.89
X150.025Y-152.42
X152.4Y-76.2
X152.4Y-95.25
X152.4Y-114.3
X152.4Y-133.35
X165.1Y-78.74
X165.1Y-97.79
X165.1Y-116.84
X165.1Y-135.89
X171.45Y-76.2
X171.45Y-95.25
X171.45Y-114.3
X171.45Y-133.35
X177.047Y-154.931
X183.397Y-152.391
X184.15Y-78.74
X184.15Y-97.79
X184.15Y-116.84
X184.15Y-135.89
X190.5Y-76.2
X190.5Y-95.25
X190.5Y-114.3
X190.5Y-133.35
X191.294Y-154.94
X197.644Y-152.4
X203.2Y-78.74
X203.2Y-97.79
X203.2Y-116.84
X203.2Y-135.89
X209.55Y-76.2
X209.55Y-95.25
X209.55Y-114.3
X209.55Y-133.35
X222.25Y-78.74
X222.25Y-97.79
X222.25Y-116.84
X222.25Y-135.89
X224.631Y-154.94
X228.6Y-76.2
X228.6Y-95.25
X228.6Y-114.3
X228.6Y-133.35
X230.981Y-152.4
X241.3Y-78.74
X241.3Y-97.79
X241.3Y-116.84
X241.3Y-135.89
X247.65Y-76.2
X247.65Y-95.25
X247.65Y-114.3
X247.65Y-133.35
X260.35Y-78.74
X260.35Y-97.79
X260.35Y-116.84
X260.35Y-135.89
X262.731Y-154.94
X266.7Y-76.2
X266.7Y-95.25
X266.7Y-114.3
X266.7Y-133.35
X269.081Y-152.4
X279.4Y-78.74
X279.4Y-97.79
X279.4Y-116.84
X279.4Y-135.89
X285.75Y-76.2
X285.75Y-95.25
X285.75Y-114.3
X285.75Y-133.35
X286.544Y-154.94
X292.894Y-152.4
X298.45Y-78.74
X298.45Y-97.79
X304.8Y-76.2
X304.8Y-95.25
X310.356Y-116.84
X310.356Y-154.94
X315.119Y-135.89
X316.706Y-114.3
X316.706Y-152.4
X321.469Y-133.35
X322.262Y-97.79
X327.025Y-78.74
X328.613Y-95.25
X333.375Y-76.2
X334.169Y-154.94
X340.519Y-152.4
X374.8Y-78.74
X374.8Y-97.79
X374.8Y-116.84
X374.8Y-135.89
X381.15Y-76.2
X381.15Y-95.25
X381.15Y-114.3
X381.15Y-133.35
X384.325Y-154.94
X390.675Y-152.4
X393.85Y-78.74
X393.85Y-97.79
X393.85Y-116.84
X393.85Y-135.89
X400.2Y-76.2
X400.2Y-95.25
X400.2Y-114.3
X400.2Y-133.35
X412.9Y-78.74
X412.9Y-97.79
X412.9Y-116.84
X412.9Y-135.89
X412.9Y-154.94
X419.25Y-76.2
X419.25Y-95.25
X419.25Y-114.3
X419.25Y-133.35
X419.25Y-152.4
X431.95Y-78.74
X431.95Y-107.315
X431.95Y-145.415
X438.3Y-76.2
X438.3Y-104.775
X438.3Y-142.875
T4
X41.9Y-165.1
X42.1Y-73.0
X138.0Y-164.6
X197.5Y-73.1
X252.4Y-164.7
X353.0Y-164.9
X353.1Y-73.2
X368.0Y-73.2
X369.1Y-164.9
X443.0Y-164.6
X443.8Y-72.4
M30
